<?xml version="1.0" encoding="UTF-8"?>
<svg id="Camada_2" data-name="Camada 2" xmlns="http://www.w3.org/2000/svg" viewBox="0 0 501 501">
  <defs>
    <style>
      .cls-1 {
        fill: none;
        stroke: #fff;
        stroke-miterlimit: 10;
      }

      .cls-2 {
        fill: #969696;
      }

      .cls-3 {
        fill: #102e61;
      }
    </style>
  </defs>
  <g id="Camada_1-2" data-name="Camada 1">
    <g>
      <rect class="cls-1" x=".5" y=".5" width="500" height="500"/>
      <g>
        <rect class="cls-2" x="195.64" y="184.98" width="25.11" height="76.07"/>
        <rect class="cls-2" x="311.31" y="184.98" width="25.11" height="58.26"/>
        <path class="cls-3" d="M135.21,242.56h54.9c0-13.78-11.17-24.95-24.95-24.95h-32.74v.07c-29.09,1.45-52.23,25.5-52.23,54.95s24.64,55.02,55.02,55.02h54.9v-24.95h-54.9c-16.61,0-30.08-13.47-30.08-30.08s13.47-30.08,30.08-30.08Z"/>
        <path class="cls-3" d="M195.65,242.92h25.11v84.92h-7.45c-9.74,0-17.65-7.91-17.65-17.65v-67.27h0Z"/>
        <path class="cls-3" d="M305.22,327.84h-24.32v-54.2c0-16.99-13.82-30.81-30.81-30.81h-29.33v-24.32h29.33c30.4,0,55.13,24.73,55.13,55.13v54.2Z"/>
        <path class="cls-3" d="M220.75,218.32h-2.13c-12.69,0-22.98-10.29-22.98-22.98v-22.18h25.11v45.16Z"/>
        <path class="cls-3" d="M336.42,218.69h-2.13c-12.69,0-22.98-10.29-22.98-22.98v-22.56h25.11v45.54Z"/>
        <path class="cls-3" d="M336.42,218.69h29.82c30.09,0,54.57,24.48,54.57,54.57s-24.48,54.57-54.57,54.57-54.92-24.48-54.92-54.57v-30.03h25.11l-.21,30.03c0,16.56,13.47,30.03,30.03,30.03s30.03-13.47,30.03-30.03-13.47-30.03-30.03-30.03h-29.82v-24.54Z"/>
      </g>
    </g>
  </g>
</svg>