<?xml version="1.0" encoding="UTF-8"?>
<svg version="1.1" xmlns="http://www.w3.org/2000/svg" width="1925" height="1083">
<path d="M0 0 C15.84 0 31.68 0 48 0 C48.87125848 4.35629241 49.13602558 8.24249403 49.11352539 12.63598633 C49.11367142 13.38774139 49.11381744 14.13949646 49.1139679 14.91403198 C49.11327395 17.38672826 49.1055059 19.85934821 49.09765625 22.33203125 C49.09579023 24.05124368 49.09436719 25.77045665 49.09336853 27.4896698 C49.08955786 32.00566079 49.07973997 36.52161942 49.06866455 41.03759766 C49.05841924 45.64940961 49.05386423 50.26122681 49.04882812 54.87304688 C49.03811638 63.91537877 49.0210574 72.95768669 49 82 C49.66968811 82.00808685 50.33937622 82.01617371 51.02935791 82.02450562 C58.10453855 82.11167524 65.17947426 82.21120244 72.25439453 82.31738281 C74.88228183 82.35527731 77.51021406 82.39019284 80.13818359 82.421875 C105.35970622 82.72957181 105.35970622 82.72957181 117.3984375 83.8984375 C118.17608459 83.97242767 118.95373169 84.04641785 119.75494385 84.12265015 C126.98441619 84.91975097 133.30884154 87.14595137 140 90 C141.75570313 90.66515625 141.75570313 90.66515625 143.546875 91.34375 C152.11117842 94.70963344 158.93447237 99.13952592 166 105 C167.10988281 105.89912109 167.10988281 105.89912109 168.2421875 106.81640625 C173.34451418 111.09481637 177.72752454 115.90348316 182 121 C182.50144531 121.57878906 183.00289062 122.15757812 183.51953125 122.75390625 C200.40974656 143.55260113 204.62266785 169.96144947 203 196 C202.56262995 199.96780059 201.95484903 203.88394888 201.25 207.8125 C201.01470581 209.14414185 201.01470581 209.14414185 200.7746582 210.50268555 C199.20886825 218.43677228 196.16923901 225.11169207 192 232 C191.608125 233.03125 191.21625 234.0625 190.8125 235.125 C188.55237804 240.60518819 184.82401141 245.51023713 181 250 C180.34 250 179.68 250 179 250 C178.835 250.680625 178.67 251.36125 178.5 252.0625 C176.26230933 256.44464423 172.78598152 258.93992568 169 262 C168.12730469 262.72316406 167.25460937 263.44632813 166.35546875 264.19140625 C159.43592807 269.85469064 159.43592807 269.85469064 156 271 C155.52369141 271.47945068 155.04738281 271.95890137 154.55664062 272.45288086 C152.80911834 274.18971409 151.37792019 274.86093915 149.09375 275.75390625 C147.97806641 276.19959961 147.97806641 276.19959961 146.83984375 276.65429688 C146.06769531 276.95400391 145.29554688 277.25371094 144.5 277.5625 C142.96757237 278.16498198 141.43627325 278.77034414 139.90625 279.37890625 C139.22884766 279.6426001 138.55144531 279.90629395 137.85351562 280.17797852 C135.73185402 281.05616894 135.73185402 281.05616894 133 283 C130.45127857 283.59851998 127.94974883 284.11493566 125.375 284.5625 C124.64933838 284.69180908 123.92367676 284.82111816 123.17602539 284.9543457 C95.96127149 289.718223 72.3550837 285.40634744 48 273 C48 272.34 48 271.68 48 271 C46.9790625 270.62875 46.9790625 270.62875 45.9375 270.25 C42.43134917 268.75802092 39.28379632 266.93164489 36 265 C36 264.34 36 263.68 36 263 C35.34 263 34.68 263 34 263 C32.28891311 261.37897032 30.62746694 259.70496537 29 258 C28.2575 257.29875 27.515 256.5975 26.75 255.875 C25 254 25 254 24 251 C23.2575 250.278125 22.515 249.55625 21.75 248.8125 C18.55844508 245.54840974 14 240.82821223 14 236 C13.01 235.67 12.02 235.34 11 235 C9.75390625 232.375 9.75390625 232.375 8.5625 229 C7.13159712 225.03915738 5.67592819 221.21302802 3.8125 217.4375 C-0.7166733 207.3121487 -0.40036728 195.73655093 -0.6171875 184.83984375 C-0.63562588 184.04319746 -0.65406425 183.24655117 -0.67306137 182.42576408 C-1.20517126 159.34002084 -1.15121809 136.24498753 -1.13037109 113.15454102 C-1.12470225 106.85635751 -1.12803872 100.55821658 -1.13382339 94.26003456 C-1.15809462 62.82222503 -0.77970254 31.42943796 0 0 Z M48 131 C47.10785549 152.60424926 47.10785549 152.60424926 46.70483398 174.22143555 C46.69308423 175.63885292 46.6722912 177.05621889 46.64331055 178.47338867 C46.4371828 188.72334981 47.60721329 197.27797399 51 207 C51.66 207 52.32 207 53 207 C53.1134375 207.57363281 53.226875 208.14726563 53.34375 208.73828125 C55.78563896 217.15407712 63.7031418 225.45751521 70.83984375 230.23046875 C72.94405506 231.32630496 74.61043192 232 77 232 C77 232.66 77 233.32 77 234 C78.70577342 234.65256456 80.41476089 235.29673041 82.125 235.9375 C83.07632812 236.29714844 84.02765625 236.65679688 85.0078125 237.02734375 C97.92622738 241.22667182 110.49270281 239.30154282 123 235 C123.99 234.67 124.98 234.34 126 234 C126 233.34 126 232.68 126 232 C126.57234375 231.88527344 127.1446875 231.77054688 127.734375 231.65234375 C137.96980774 228.70524501 144.593083 219.25633489 149.8125 210.5625 C156.58413075 197.56644098 157.72502529 181.98655645 153.39257812 168.04541016 C150.97856097 160.9520977 148.619652 155.1776569 143 150 C142.29875 149.05125 141.5975 148.1025 140.875 147.125 C133.16022186 137.67683817 119.20812303 132.59096803 107.47436523 131.19851685 C102.24270775 130.77878409 96.99485629 130.87988845 91.75 130.90234375 C89.86921753 130.90446617 89.86921753 130.90446617 87.95043945 130.90663147 C84.64282033 130.91125919 81.33525137 130.92021897 78.02764893 130.93133545 C74.64213673 130.94162824 71.25661714 130.94614583 67.87109375 130.95117188 C61.24737646 130.96216553 54.62369232 130.97887707 48 131 Z " fill="#FEFEFE" transform="translate(1075,353)"/>
<path d="M0 0 C0.85049423 0.00222061 1.70098846 0.00444122 2.57725525 0.00672913 C4.03887085 0.0069104 4.03887085 0.0069104 5.53001404 0.00709534 C7.07694946 0.01476929 7.07694946 0.01476929 8.65513611 0.02259827 C10.06901611 0.02410889 10.06901611 0.02410889 11.51145935 0.02565002 C15.04764515 0.03089975 18.58381367 0.04486088 22.11997986 0.05775452 C30.01935486 0.07837952 37.91872986 0.09900452 46.05747986 0.12025452 C46.38747986 27.18025452 46.71747986 54.24025452 47.05747986 82.12025452 C65.7086043 82.36899641 65.7086043 82.36899641 84.35997009 82.59828186 C97.37555844 82.77875546 110.1830938 83.08243002 123.05747986 85.12025452 C123.97239197 85.26479065 124.88730408 85.40932678 125.8299408 85.5582428 C131.79484325 86.59006061 136.75817931 89.29854903 142.05747986 92.12025452 C144.2631967 93.22963873 146.47155461 94.33378697 148.68247986 95.43275452 C151.36997986 96.77650452 151.36997986 96.77650452 154.05747986 98.12025452 C154.05747986 98.78025452 154.05747986 99.44025452 154.05747986 100.12025452 C154.92630798 100.34455139 155.79513611 100.56884827 156.69029236 100.79994202 C160.52603445 102.3039801 163.02946119 104.42421241 165.93247986 107.24525452 C166.71401428 107.98666687 166.71401428 107.98666687 167.51133728 108.74305725 C168.55468146 109.73678741 169.59377481 110.73500238 170.62828064 111.7379303 C171.86087503 112.93009795 173.11182215 114.10323693 174.36607361 115.27259827 C182.3613 122.89377898 188.71763888 132.13260676 192.55747986 142.49525452 C193.80818972 145.85453293 195.07535327 149.16037975 196.53422546 152.4355011 C202.40881055 166.64612641 201.54688902 182.10627627 201.60435486 197.19837952 C201.62377445 199.70325082 201.64432164 202.20811362 201.66593933 204.71296692 C201.70805678 209.93058173 201.74081607 215.14813628 201.76597595 220.36585999 C201.79519116 226.39368494 201.83698915 232.42126656 201.88721538 238.4489491 C201.93574802 244.27364524 201.97814354 250.09836542 202.01699066 255.92313385 C202.03353509 258.39356433 202.05110419 260.86398817 202.06970978 263.33440399 C202.09408792 266.77115457 202.11155596 270.20786696 202.1268158 273.64466858 C202.13504868 274.66695053 202.14328156 275.68923248 202.15176392 276.74249268 C202.15446793 277.67573868 202.15717194 278.60898468 202.15995789 279.57051086 C202.16655741 280.78709066 202.16655741 280.78709066 202.17329025 282.02824783 C202.05747986 284.12025452 202.05747986 284.12025452 201.05747986 287.12025452 C185.54747986 287.12025452 170.03747986 287.12025452 154.05747986 287.12025452 C154.01880798 275.81259827 154.01880798 275.81259827 153.97935486 264.27650452 C153.9541597 259.47308609 153.92780609 254.66972897 153.89732361 249.86634827 C153.84915239 242.25843655 153.80504628 234.6506669 153.78648376 227.0426178 C153.77123188 220.90215301 153.73663601 214.76206239 153.68917084 208.62176514 C153.67444461 206.29050975 153.66644393 203.95920092 153.66559601 201.62789917 C153.96876955 179.43892456 153.96876955 179.43892456 146.05747986 159.12025452 C145.47611267 158.23466858 144.89474548 157.34908264 144.29576111 156.43666077 C140.53317316 151.05608369 137.06196754 146.82893211 131.52622986 143.24134827 C131.04154236 142.87138733 130.55685486 142.50142639 130.05747986 142.12025452 C130.05747986 141.46025452 130.05747986 140.80025452 130.05747986 140.12025452 C128.40747986 139.79025452 126.75747986 139.46025452 125.05747986 139.12025452 C125.05747986 138.46025452 125.05747986 137.80025452 125.05747986 137.12025452 C123.45519777 136.65537577 121.85049527 136.19884069 120.24497986 135.74525452 C119.35165955 135.49002014 118.45833923 135.23478577 117.53794861 134.97181702 C108.14189113 132.67289386 99.18369255 131.80004731 89.51451111 131.70619202 C88.26490097 131.68682587 87.01529083 131.66745972 85.72781372 131.64750671 C82.44496122 131.59824755 79.16213934 131.55681861 75.87913513 131.5193634 C72.51335607 131.47897569 69.14773714 131.42804424 65.78208923 131.37806702 C59.2073234 131.28253784 52.63248631 131.19735057 46.05747986 131.12025452 C46.05840165 131.91816123 46.05932344 132.71606794 46.06027317 133.53815365 C46.08232685 152.92440455 46.09889065 172.31065296 46.10929203 191.69691372 C46.11445534 201.07183723 46.1214987 210.44675238 46.13291931 219.82167053 C46.14286509 227.98979973 46.14933303 236.15792288 46.15156835 244.32605797 C46.15287564 248.65376507 46.15596263 252.98145485 46.16320992 257.30915642 C46.16996846 261.3777518 46.17209716 265.44632264 46.17058754 269.5149231 C46.17086394 271.01257015 46.17287005 272.51021797 46.17668533 274.00786018 C46.18161992 276.0437677 46.17987804 278.07968822 46.17773438 280.11560059 C46.17865617 281.25770209 46.17957796 282.3998036 46.18052769 283.57651424 C46.05747986 286.12025452 46.05747986 286.12025452 45.05747986 287.12025452 C35.95723969 288.02333178 25.02587297 286.90473245 17.05747986 282.12025452 C16.03191722 281.14648797 15.03096834 280.14608109 14.05747986 279.12025452 C12.97574111 278.28485232 11.89231903 277.45162659 10.80747986 276.62025452 C2.41664735 269.42049357 -2.08765036 259.36169114 -3.21778727 248.46652102 C-3.31894444 245.74442214 -3.33335775 243.03708141 -3.31001282 240.31321716 C-3.31328166 239.28363597 -3.3165505 238.25405477 -3.31991839 237.19327414 C-3.3271485 233.77473711 -3.31309086 230.35663588 -3.29896545 226.93812561 C-3.299757 224.475102 -3.30185631 222.01207852 -3.30516052 219.54905701 C-3.30974861 213.57507017 -3.30052968 207.60125125 -3.28487256 201.6272953 C-3.26727815 194.66979637 -3.26591222 187.71232203 -3.26525697 180.75480433 C-3.26357246 168.34778461 -3.24779561 155.94082363 -3.22377014 143.53382874 C-3.20046526 131.49020398 -3.18633798 119.44661648 -3.18275452 107.40296936 C-3.18253175 106.65967583 -3.18230898 105.91638229 -3.18207946 105.15056472 C-3.18163687 103.65320728 -3.18119484 102.15584985 -3.18075339 100.65849242 C-3.18053383 99.91989192 -3.18031426 99.18129141 -3.18008804 98.42030907 C-3.17987206 97.68358796 -3.17965607 96.94686686 -3.17943354 96.18782087 C-3.1757378 84.70805842 -3.16438245 73.22830198 -3.15195765 61.74854612 C-3.1475187 57.58579578 -3.14408203 53.42304602 -3.14133552 49.26029424 C-3.13649974 42.05101282 -3.12641487 34.84176343 -3.11050797 27.63249588 C-3.10597005 25.23342398 -3.1031428 22.83434818 -3.10210037 20.43527222 C-3.10036565 17.17597051 -3.09251225 13.91674221 -3.08296204 10.65745544 C-3.08382852 9.69513453 -3.084695 8.73281361 -3.08558774 7.74133146 C-3.05209128 0.18894412 -3.05209128 0.18894412 0 0 Z " fill="#FEFEFE" transform="translate(864.9425201416016,352.87974548339844)"/>
<path d="M0 0 C0.84000549 0.00221558 1.68001099 0.00443115 2.54547119 0.00671387 C7.80535659 0.02284125 13.06493967 0.05620044 18.324646 0.10217285 C20.04961189 0.11724298 21.77458807 0.13118189 23.49957275 0.1439209 C28.34966706 0.18077162 33.19848797 0.24033217 38.04782104 0.33453369 C39.54066108 0.36120843 41.03362717 0.38165934 42.52664185 0.39544678 C50.71861957 0.47927177 57.75349276 0.83356333 64.9375 5.125 C66.34708984 5.93324219 66.34708984 5.93324219 67.78515625 6.7578125 C68.51605469 7.25023437 69.24695313 7.74265625 70 8.25 C70.75410156 8.74757813 71.50820313 9.24515625 72.28515625 9.7578125 C72.83042969 10.20898438 73.37570312 10.66015625 73.9375 11.125 C73.9375 11.785 73.9375 12.445 73.9375 13.125 C74.53046875 13.35316406 75.1234375 13.58132813 75.734375 13.81640625 C78.54097489 15.48344697 79.55439463 17.25405365 81.1875 20.0625 C81.96867187 21.37541016 81.96867187 21.37541016 82.765625 22.71484375 C83.9375 25.125 83.9375 25.125 83.9375 28.125 C84.5975 28.125 85.2575 28.125 85.9375 28.125 C88.52160153 35.18821086 88.9836174 41.700099 88.9375 49.125 C87.96206741 49.12277939 86.98663483 49.12055878 85.98164368 49.11827087 C76.64592826 49.09771898 67.31021761 49.08287724 57.97448444 49.07318783 C53.17853645 49.0680385 48.38260716 49.06109174 43.58666992 49.04956055 C31.03657145 49.0204332 18.48731328 49.02704881 5.9375 49.125 C5.17787712 49.13083351 4.41825424 49.13666702 3.63561249 49.14267731 C-1.06310146 49.18356867 -5.75933685 49.26838389 -10.45703125 49.37890625 C-11.56463303 49.39275864 -12.6722348 49.40661102 -13.81340027 49.42088318 C-23.77877642 49.72673319 -33.81402308 51.89873668 -42.0625 57.75 C-45.34619541 60.04258003 -48.35083091 61.64547852 -52.0625 63.125 C-53.20459817 64.90728936 -53.20459817 64.90728936 -54.0625 67.125 C-56.0625 70.375 -56.0625 70.375 -58.0625 73.125 C-58.7225 73.125 -59.3825 73.125 -60.0625 73.125 C-60.330625 74.115 -60.59875 75.105 -60.875 76.125 C-61.83584428 79.52227084 -63.0457246 82.76782507 -64.37890625 86.03515625 C-68.34307472 98.15418557 -67.16065279 114.39469269 -61.7734375 125.87109375 C-58.88007229 130.95382354 -55.39769347 135.29042334 -51.3828125 139.53125 C-50.0625 141.125 -50.0625 141.125 -50.0625 143.125 C-49.50046875 143.23714844 -48.9384375 143.34929687 -48.359375 143.46484375 C-45.74736892 144.21557339 -43.66778678 145.33667376 -41.3125 146.6875 C-40.51328125 147.14253906 -39.7140625 147.59757813 -38.890625 148.06640625 C-38.28734375 148.41574219 -37.6840625 148.76507812 -37.0625 149.125 C-37.0625 149.785 -37.0625 150.445 -37.0625 151.125 C-35.62528243 151.41805521 -34.18770173 151.70932935 -32.75 152 C-31.54923828 152.24363281 -31.54923828 152.24363281 -30.32421875 152.4921875 C-29.24785156 152.70101562 -28.17148437 152.90984375 -27.0625 153.125 C-25.90320244 153.36660386 -25.90320244 153.36660386 -24.72048473 153.61308861 C-18.14354039 154.9168484 -11.87033598 155.42849863 -5.17504883 155.44384766 C-3.63645203 155.45891609 -3.63645203 155.45891609 -2.06677246 155.47428894 C1.28230287 155.50487747 4.63129919 155.52208784 7.98046875 155.5390625 C10.31887989 155.55779375 12.65728441 155.5773686 14.99568176 155.5977478 C21.11935507 155.64886819 27.24305023 155.68860103 33.36682129 155.72589111 C40.73092258 155.77313216 48.09491709 155.83464324 55.45893097 155.89373779 C66.6184104 155.98170479 77.7778719 156.05164489 88.9375 156.125 C88.9375 171.965 88.9375 187.805 88.9375 204.125 C62.37655515 204.20521762 62.37655515 204.20521762 50.97265625 204.22265625 C43.21986114 204.23456827 35.4671137 204.24859388 27.71435547 204.27587891 C21.45735657 204.2977596 15.20040886 204.30960048 8.94337463 204.31475449 C6.5674204 204.31842309 4.19146868 204.32558616 1.8155365 204.33646011 C-14.90317637 204.40986831 -30.97192827 204.23852915 -47.0625 199.125 C-47.0625 198.465 -47.0625 197.805 -47.0625 197.125 C-47.866875 197.0425 -48.67125 196.96 -49.5 196.875 C-55.70008186 195.56971961 -61.88425377 192.79988442 -67.0625 189.125 C-67.0625 188.465 -67.0625 187.805 -67.0625 187.125 C-67.7225 187.08375 -68.3825 187.0425 -69.0625 187 C-75.53246437 185.11292706 -80.51610851 179.91714238 -85.0625 175.125 C-86.4546875 173.7946875 -86.4546875 173.7946875 -87.875 172.4375 C-90.0625 170.125 -90.0625 170.125 -90.0625 168.125 C-90.7225 168.125 -91.3825 168.125 -92.0625 168.125 C-93.95542313 165.70326025 -95.71290726 163.28815983 -97.4375 160.75 C-97.93773682 160.01773193 -98.43797363 159.28546387 -98.95336914 158.53100586 C-102.00675859 153.96275652 -104.5233111 149.55118979 -106.3046875 144.328125 C-107.0777846 142.08056435 -108.06295409 140.06159182 -109.125 137.9375 C-114.23539209 126.37040105 -114.60194195 113.67995925 -114.5 101.25 C-114.49828796 100.50786255 -114.49657593 99.7657251 -114.49481201 99.00109863 C-114.4509976 87.93661769 -113.69067946 77.66525859 -110.0625 67.125 C-109.68867187 65.99578125 -109.31484375 64.8665625 -108.9296875 63.703125 C-108.64351562 62.85234375 -108.35734375 62.0015625 -108.0625 61.125 C-107.4025 61.125 -106.7425 61.125 -106.0625 61.125 C-105.89621094 60.31095703 -105.89621094 60.31095703 -105.7265625 59.48046875 C-102.59526275 48.37356435 -95.29548617 38.95637708 -87.0625 31.125 C-86.47855469 30.50882812 -85.89460937 29.89265625 -85.29296875 29.2578125 C-80.69964824 24.4561165 -75.91825094 20.33229927 -70.0625 17.125 C-69.4025 17.125 -68.7425 17.125 -68.0625 17.125 C-67.5675 15.64 -67.5675 15.64 -67.0625 14.125 C-64.58896971 12.84209801 -62.1947639 11.73906949 -59.625 10.6875 C-58.89579346 10.38110596 -58.16658691 10.07471191 -57.4152832 9.7590332 C-55.95949158 9.14940333 -54.50174974 8.54440737 -53.04199219 7.94433594 C-51.4071952 7.26767354 -49.7839182 6.56325112 -48.1640625 5.8515625 C-33.06615456 -0.64688979 -16.14199187 -0.0562784 0 0 Z " fill="#FEFEFE" transform="translate(765.0625,435.875)"/>
<path d="M0 0 C15.18 0 30.36 0 46 0 C48.05004237 4.10008474 48.24942421 5.75846532 48.24723816 10.20683289 C48.25143265 11.48142365 48.25562714 12.7560144 48.25994873 14.06922913 C48.25446557 15.47934036 48.2487826 16.88945084 48.24291992 18.29956055 C48.24399297 19.7861947 48.245932 21.27282844 48.24867249 22.75946045 C48.25351904 26.79432735 48.24586844 30.82908362 48.23571944 34.86393714 C48.22693991 39.08220784 48.22869634 43.30047507 48.2290802 47.51875305 C48.22814378 54.59951633 48.21946116 61.68023674 48.20581055 68.76098633 C48.19006708 76.95783811 48.18481308 85.15464299 48.1855461 93.3515088 C48.18615545 101.22814378 48.18105972 109.10476343 48.17275429 116.98139381 C48.16921572 120.33824597 48.16739023 123.69509271 48.16686058 127.05194664 C48.16585942 130.99913131 48.15978152 134.94627629 48.14969444 138.89344788 C48.14676271 140.34594289 48.14554543 141.79844247 48.14612198 143.25094032 C48.14660931 145.22533717 48.14036352 147.19973234 48.13371277 149.17411804 C48.13203692 150.2815269 48.13036108 151.38893576 48.12863445 152.52990246 C48 155 48 155 47 156 C37.89975984 156.90307727 26.96839311 155.78447794 19 151 C17.97443736 150.02623346 16.97348849 149.02582658 16 148 C14.91826125 147.1645978 13.83483917 146.33137208 12.75 145.5 C4.30686526 138.25536108 -0.29573649 128.07493053 -1.25458336 117.08100319 C-1.32649973 113.96101503 -1.30682014 110.85586794 -1.2487793 107.7355957 C-1.23480606 105.97754356 -1.23480606 105.97754356 -1.22055054 104.18397522 C-1.18644365 100.34760219 -1.13050395 96.51188742 -1.07421875 92.67578125 C-1.04615741 90.0010765 -1.01931795 87.32638723 -0.99409485 84.6516571 C-0.93205767 78.35488016 -0.85427783 72.05840267 -0.77067453 65.76187915 C-0.67618186 58.58655473 -0.59949345 51.41107341 -0.52421319 44.23552573 C-0.36912117 29.49008934 -0.18960513 14.74503667 0 0 Z " fill="#FEFEFE" transform="translate(863,484)"/>
<path d="M0 0 C0.85049423 0.00222061 1.70098846 0.00444122 2.57725525 0.00672913 C4.03887085 0.0069104 4.03887085 0.0069104 5.53001404 0.00709534 C7.07694946 0.01476929 7.07694946 0.01476929 8.65513611 0.02259827 C10.06901611 0.02410889 10.06901611 0.02410889 11.51145935 0.02565002 C15.04764515 0.03089975 18.58381367 0.04486088 22.11997986 0.05775452 C30.01935486 0.07837952 37.91872986 0.09900452 46.05747986 0.12025452 C46.38747986 27.18025452 46.71747986 54.24025452 47.05747986 82.12025452 C61.90747986 82.61525452 61.90747986 82.61525452 77.05747986 83.12025452 C77.05747986 83.45025452 77.05747986 83.78025452 77.05747986 84.12025452 C66.49747986 84.12025452 55.93747986 84.12025452 45.05747986 84.12025452 C45.38747986 100.95025452 45.71747986 117.78025452 46.05747986 135.12025452 C45.39747986 134.79025452 44.73747986 134.46025452 44.05747986 134.12025452 C44.05747986 133.13025452 44.05747986 132.14025452 44.05747986 131.12025452 C28.54747986 131.45025452 13.03747986 131.78025452 -2.94252014 132.12025452 C-2.96506686 115.05724557 -2.98349913 97.99424928 -2.99433231 80.93122959 C-2.99949535 73.00912507 -3.00653819 65.08703043 -3.01795959 57.16493225 C-3.0279062 50.26250815 -3.03437351 43.36009121 -3.03660864 36.45766014 C-3.03791578 32.8006479 -3.04100188 29.14365616 -3.0482502 25.48665047 C-3.05626362 21.41081445 -3.0565113 17.33501439 -3.05604553 13.25917053 C-3.05964081 12.03781906 -3.06323608 10.81646759 -3.06694031 9.55810547 C-3.06556564 8.45447662 -3.06419098 7.35084778 -3.06277466 6.21377563 C-3.06369645 5.24865838 -3.06461824 4.28354113 -3.06556797 3.28917789 C-2.90774356 0.50725927 -2.78203892 0.17222614 0 0 Z " fill="#FDFDFD" transform="translate(864.9425201416016,352.87974548339844)"/>
<path d="M0 0 C15.84 0 31.68 0 48 0 C48.85317482 4.26587412 49.1266273 7.70251295 49.12939453 12.01025391 C49.13198902 13.04566362 49.13198902 13.04566362 49.13463593 14.1019907 C49.13898658 16.39353903 49.13604641 18.68501323 49.1328125 20.9765625 C49.13382811 22.60337852 49.13516754 24.23019438 49.1368103 25.85700989 C49.13950897 30.21318263 49.13505005 34.56931976 49.12857056 38.92548752 C49.12500789 41.61903744 49.12338352 44.31258205 49.12231445 47.00613403 C49.10783008 76.3474064 48.78546825 105.66819232 48 135 C47.67 133.68 47.34 132.36 47 131 C32.15 131 17.3 131 2 131 C2 133.31 2 135.62 2 138 C1.34 138.33 0.68 138.66 0 139 C-1.26020967 135.12301213 -1.14050855 131.24267018 -1.12939453 127.21362305 C-1.13112419 126.42940475 -1.13285385 125.64518646 -1.13463593 124.83720398 C-1.13899542 122.22868759 -1.13604494 119.62023598 -1.1328125 117.01171875 C-1.13382704 115.17023193 -1.13516585 113.32874527 -1.1368103 111.48725891 C-1.13950704 106.56805238 -1.13505713 101.6488774 -1.12857056 96.72967529 C-1.12501189 93.69763087 -1.1233849 90.66559116 -1.12231445 87.63354492 C-1.10945734 58.40492252 -0.81166278 29.21986011 0 0 Z " fill="#FDFCFD" transform="translate(1075,353)"/>
<path d="M0 0 C2.52847943 2.98693999 3.47211136 5.31334567 4.25 9.125 C6.67186369 18.53638739 12.86819663 26.66394752 21 32 C26.79719764 34.74383957 32.61957892 36.43285146 39 37 C39 37.66 39 38.32 39 39 C41.64 39 44.28 39 47 39 C47 53.85 47 68.7 47 84 C31.16 84 15.32 84 -1 84 C-1.04010881 63.32613705 -1.04010881 63.32613705 -1.04882812 54.54492188 C-1.05481664 48.54222739 -1.06191715 42.53954809 -1.07543945 36.53686523 C-1.0862681 31.69990306 -1.09227679 26.86295716 -1.09487724 22.02598381 C-1.09673153 20.17631715 -1.10035222 18.32665143 -1.10573006 16.47699165 C-1.1129402 13.89552986 -1.11399095 11.31413618 -1.11352539 8.73266602 C-1.11712067 7.96014999 -1.12071594 7.18763397 -1.12442017 6.39170837 C-1.11405216 1.11405216 -1.11405216 1.11405216 0 0 Z " fill="#306391" transform="translate(1075,399)"/>
<path d="M0 0 C0.33 0 0.66 0 1 0 C1 1.65 1 3.3 1 5 C1.66 5 2.32 5 3 5 C3.21914063 5.845625 3.43828125 6.69125 3.6640625 7.5625 C6.71036333 18.45983629 10.92920645 25.9466653 20.734375 32.0859375 C28.54508851 36.37860236 37.27537112 37.75362445 46 39 C46 53.85 46 68.7 46 84 C30.82 84 15.64 84 0 84 C-1.162677 80.51196901 -1.14000501 77.38956483 -1.12939453 73.76220703 C-1.13114685 73.02852905 -1.13289917 72.29485107 -1.13470459 71.53894043 C-1.13910816 69.11187377 -1.13618975 66.68487991 -1.1328125 64.2578125 C-1.13348611 62.57013942 -1.13445662 60.88246644 -1.13571167 59.1947937 C-1.13718674 55.65573199 -1.13504074 52.1166955 -1.13037109 48.57763672 C-1.12468265 44.04598029 -1.1279484 39.5143832 -1.13394356 34.98272896 C-1.13756176 31.4962825 -1.13640464 28.00985005 -1.13381577 24.52340317 C-1.13314953 22.85288359 -1.13396431 21.18236272 -1.13629532 19.51184464 C-1.13884151 17.17338968 -1.13495314 14.83502992 -1.12939453 12.49658203 C-1.13141876 11.80861542 -1.13344299 11.1206488 -1.13552856 10.41183472 C-1.11973453 6.81587106 -0.84699911 3.49787144 0 0 Z " fill="#2F608F" transform="translate(863,399)"/>
<path d="M0 0 C0.66 0.33 1.32 0.66 2 1 C1.67 18.49 1.34 35.98 1 54 C0.505 52.02 0.505 52.02 0 50 C-14.85 50 -29.7 50 -45 50 C-45 52.31 -45 54.62 -45 57 C-45.99 57.495 -45.99 57.495 -47 58 C-47.33 55.03 -47.66 52.06 -48 49 C-32.16 49 -16.32 49 0 49 C0 34.15 0 19.3 0 4 C-2.64 4 -5.28 4 -8 4 C-8 3.67 -8 3.34 -8 3 C-5.36 3 -2.72 3 0 3 C0 2.01 0 1.02 0 0 Z " fill="#D4DAE5" transform="translate(1122,434)"/>
<path d="M0 0 C0.33 17.16 0.66 34.32 1 52 C0.01 51.505 0.01 51.505 -1 51 C-1 50.01 -1 49.02 -1 48 C-16.51 48.33 -32.02 48.66 -48 49 C-47.67 48.01 -47.34 47.02 -47 46 C-31.82 46.33 -16.64 46.66 -1 47 C-1 32.15 -1 17.3 -1 2 C-3.31 2 -5.62 2 -8 2 C-8 1.67 -8 1.34 -8 1 C-1.125 0 -1.125 0 0 0 Z " fill="#D3DAE2" transform="translate(910,436)"/>
<path d="M0 0 C0.33 0 0.66 0 1 0 C1 1.65 1 3.3 1 5 C1.66 5 2.32 5 3 5 C3.66 8.3 4.32 11.6 5 15 C4.01 14.67 3.02 14.34 2 14 C1.01 14.495 1.01 14.495 0 15 C-2.19218189 10.61563621 -1.15774649 4.63098598 0 0 Z " fill="#6B7E9D" transform="translate(863,399)"/>
<path d="M0 0 C1.48831242 0.00667405 2.97660807 0.01863442 4.46484375 0.03515625 C5.22345703 0.03966797 5.98207031 0.04417969 6.76367188 0.04882812 C8.64326246 0.06064945 10.52281274 0.07858547 12.40234375 0.09765625 C12.40234375 0.42765625 12.40234375 0.75765625 12.40234375 1.09765625 C8.44234375 1.09765625 4.48234375 1.09765625 0.40234375 1.09765625 C0.40234375 2.74765625 0.40234375 4.39765625 0.40234375 6.09765625 C-1.24765625 6.42765625 -2.89765625 6.75765625 -4.59765625 7.09765625 C-4.64019981 5.09810879 -4.63846408 3.09723989 -4.59765625 1.09765625 C-3.59765625 0.09765625 -3.59765625 0.09765625 0 0 Z " fill="#F9F8F8" transform="translate(1127.59765625,435.90234375)"/>
<path d="M0 0 C0.66 0 1.32 0 2 0 C2.103125 0.598125 2.20625 1.19625 2.3125 1.8125 C3.08876455 4.28243264 4.07088921 5.32251235 6 7 C5.34 7 4.68 7 4 7 C4.474375 7.928125 4.94875 8.85625 5.4375 9.8125 C7 13 7 13 8 16 C7.34 16 6.68 16 6 16 C1.78869556 11.06713249 0.34134268 6.37173005 0 0 Z " fill="#F6F3F5" transform="translate(864,607)"/>
<path d="M0 0 C2.31 0 4.62 0 7 0 C6.67 0.66 6.34 1.32 6 2 C4.68 2 3.36 2 2 2 C2 6.62 2 11.24 2 16 C-0.05279359 11.89441282 -0.2216942 10.19793315 -0.125 5.75 C-0.10695313 4.67234375 -0.08890625 3.5946875 -0.0703125 2.484375 C-0.04710937 1.66453125 -0.02390625 0.8446875 0 0 Z " fill="#F6F2FA" transform="translate(1075,353)"/>
<path d="M0 0 C0.66 0 1.32 0 2 0 C2.19517554 1.93674185 2.38087873 3.87444009 2.5625 5.8125 C2.66691406 6.89144531 2.77132812 7.97039063 2.87890625 9.08203125 C3 12 3 12 2 15 C1.34 15 0.68 15 0 15 C0 10.05 0 5.1 0 0 Z " fill="#F6EFF2" transform="translate(696,531)"/>
<path d="M0 0 C1.32 0 2.64 0 4 0 C5.13896163 4.34492771 4.93100471 8.38620785 4.5625 12.8125 C4.51029297 13.50537109 4.45808594 14.19824219 4.40429688 14.91210938 C4.27560181 16.60854437 4.13863816 18.30434863 4 20 C3.67 20 3.34 20 3 20 C2.67 14.06 2.34 8.12 2 2 C1.34 2 0.68 2 0 2 C0 1.34 0 0.68 0 0 Z " fill="#F5F2F9" transform="translate(1119,353)"/>
<path d="M0 0 C2.31 0 4.62 0 7 0 C7 3.96 7 7.92 7 12 C6.67 12 6.34 12 6 12 C6 9.69 6 7.38 6 5 C5.01 4.67 4.02 4.34 3 4 C1.3125 1.9375 1.3125 1.9375 0 0 Z " fill="#586B8E" transform="translate(902,438)"/>
<path d="M0 0 C1.98 0.66 3.96 1.32 6 2 C6 2.99 6 3.98 6 5 C2.66666667 8 2.66666667 8 0 8 C0 7.34 0 6.68 0 6 C0.66 6 1.32 6 2 6 C1.34 4.02 0.68 2.04 0 0 Z " fill="#FAF7F8" transform="translate(715,490)"/>
<path d="M0 0 C3.77545388 1.09068668 6.47043472 1.9083091 9 5 C6 6 6 6 3 5 C3 4.34 3 3.68 3 3 C1.68 2.34 0.36 1.68 -1 1 C-0.67 0.67 -0.34 0.34 0 0 Z " fill="#F7F5F6" transform="translate(1144,582)"/>
<path d="M0 0 C0.66 0 1.32 0 2 0 C3.125 2.25 3.125 2.25 4 5 C3.125 7.3125 3.125 7.3125 2 9 C1.01 8.34 0.02 7.68 -1 7 C-0.67 4.69 -0.34 2.38 0 0 Z " fill="#3E6B97" transform="translate(1079,414)"/>
<path d="M0 0 C1.875 0.125 1.875 0.125 4 1 C5.25 4.0625 5.25 4.0625 6 7 C5.01 7 4.02 7 3 7 C0 2.77777778 0 2.77777778 0 0 Z " fill="#F7F5F8" transform="translate(1007,504)"/>
<path d="M0 0 C1.5625 1.75 1.5625 1.75 3 4 C2.6875 6.25 2.6875 6.25 2 8 C1.67 7.34 1.34 6.68 1 6 C0.34 6.99 -0.32 7.98 -1 9 C-1.09765625 2.84765625 -1.09765625 2.84765625 -1 1 C-0.67 0.67 -0.34 0.34 0 0 Z " fill="#7D94AD" transform="translate(1075,399)"/>
<path d="M0 0 C1.65 0 3.3 0 5 0 C5.66 1.65 6.32 3.3 7 5 C4.03824877 4.38722388 2.61941217 3.74627478 0 2 C0 1.34 0 0.68 0 0 Z " fill="#FAF3F4" transform="translate(700,624)"/>
<path d="M0 0 C0.66 0 1.32 0 2 0 C2 0.66 2 1.32 2 2 C2.66 2.33 3.32 2.66 4 3 C4 4.32 4 5.64 4 7 C3.01 6.67 2.02 6.34 1 6 C0.67 4.02 0.34 2.04 0 0 Z " fill="#F4F4F9" transform="translate(1082,575)"/>
<path d="M0 0 C2 1.8125 2 1.8125 4 4 C4 4.99 4 5.98 4 7 C2.68 6.34 1.36 5.68 0 5 C0 3.35 0 1.7 0 0 Z " fill="#F9F6F8" transform="translate(1050,483)"/>
<path d="M0 0 C0.33 0 0.66 0 1 0 C1 2.31 1 4.62 1 7 C-0.32 7.33 -1.64 7.66 -3 8 C-2.01 5.36 -1.02 2.72 0 0 Z " fill="#3C5C83" transform="translate(908,474)"/>
</svg>
